<svg width="38" height="26" viewBox="0 0 38 26" fill="none" xmlns="http://www.w3.org/2000/svg">
<path d="M15.3368 11.21C15.3368 11.21 18.9316 10.9307 18.9316 6.5379C18.9316 2.1394 15.9904 0 12.2626 0H0V24.5594H12.2626C12.2626 24.5594 19.7505 24.8045 19.7505 17.309C19.7486 17.3071 20.0754 11.21 15.3368 11.21V11.21ZM5.4036 4.3624H12.2626C12.2626 4.3624 13.9308 4.3624 13.9308 6.916C13.9308 9.4734 12.9504 9.8439 11.837 9.8439H5.4036V4.3624ZM11.9149 20.1932H5.4036V13.6287H12.2626C12.2626 13.6287 14.7478 13.5945 14.7478 17.0012C14.7478 19.874 12.8915 20.1723 11.9149 20.1932V20.1932ZM29.7331 6.2453C20.6682 6.2453 20.6758 15.6826 20.6758 15.6826C20.6758 15.6826 20.0564 25.0705 29.7331 25.0705C29.7331 25.0705 37.7948 25.5531 37.7948 18.5402H33.649C33.649 18.5402 33.7858 21.1831 29.8718 21.1831C29.8718 21.1831 25.7222 21.4719 25.7222 16.9081H37.9259C37.9278 16.9062 39.273 6.2453 29.7331 6.2453V6.2453ZM33.421 13.6287H25.6804C25.6804 13.6287 26.1858 9.8439 29.8262 9.8439C33.4666 9.8439 33.421 13.6287 33.421 13.6287V13.6287ZM34.3843 1.4421H24.662V4.4707H34.3843V1.4421Z" fill="#FEECCB"/>
</svg>
