<svg width="38" height="38" viewBox="0 0 38 38" fill="none" xmlns="http://www.w3.org/2000/svg">
<path d="M7.44333 0C3.35008 0 0 3.35 0 7.44333V30.5413C0 34.6345 3.35 37.9834 7.44333 37.9834H30.5413C34.6346 37.9834 37.9834 34.6346 37.9834 30.5413V7.44333C37.9834 3.35008 34.6346 0 30.5413 0H7.44333ZM9.31543 6.26802C11.2781 6.26802 12.487 7.55645 12.5243 9.25007C12.5243 10.9063 11.278 12.2309 9.27747 12.2309H9.24065C7.31538 12.2309 6.07099 10.9064 6.07099 9.25007C6.07099 7.55649 7.35304 6.26802 9.3154 6.26802H9.31543ZM26.2285 14.1838C30.003 14.1838 32.8325 16.6508 32.8325 21.9524V31.8494H27.0963V22.6159C27.0963 20.2956 26.2661 18.7126 24.1902 18.7126C22.6054 18.7126 21.6608 19.7796 21.2461 20.8103C21.0946 21.1791 21.0574 21.6941 21.0574 22.2099V31.8494H15.3211C15.3211 31.8494 15.3964 16.2081 15.3211 14.5886H21.0585V17.0329C21.8208 15.8568 23.1843 14.1838 26.2285 14.1838V14.1838ZM6.40935 14.5898H12.1456V31.8495H6.40935V14.5898V14.5898Z" fill="#FEECCB"/>
</svg>
