<svg width="127" height="56" viewBox="0 0 127 56" fill="none" xmlns="http://www.w3.org/2000/svg">
<g clip-path="url(#clip0_1107_460)">
<path class="header__logo--color" d="M39.3964 19.062C39.3964 13.8742 39.4476 8.68631 39.3707 3.5027C39.3408 1.50605 40.0886 0.627187 42.1182 0.708247C47.7969 0.938629 53.5953 0.439467 59.133 1.42073C75.7889 4.36877 77.2203 22.4751 69.7854 30.8969C65.8415 35.368 60.6884 37.13 54.9926 37.4542C50.5957 37.706 46.1732 37.5097 41.7593 37.5566C40.0031 37.5737 39.3707 36.7034 39.3793 35.048C39.4092 29.7194 39.3921 24.3907 39.3921 19.062H39.3964ZM49.1173 19.1346C49.1173 19.1346 49.1045 19.1346 49.1002 19.1346C49.1002 20.4145 49.1002 21.6901 49.1002 22.97C49.1045 29.1178 49.3822 29.3653 55.5224 28.6784C60.8935 28.0811 64.1153 24.4846 64.0982 19.109C64.0768 13.8016 60.7653 10.0515 55.5139 9.46278C54.3174 9.33052 53.0997 9.37745 51.8904 9.36465C50.0488 9.34332 49.1301 10.2777 49.1216 12.1036C49.113 14.4459 49.1216 16.7881 49.1216 19.1346H49.1173Z" fill="#FEECCB"/>
<path class="header__logo--color" d="M27.5007 16.2035C29.4236 16.2035 31.3421 16.2291 33.2606 16.195C34.8288 16.1694 35.662 16.8094 35.6535 18.4562C35.6364 22.5049 35.7774 26.558 35.5766 30.5982C35.521 31.6989 34.7604 33.1665 33.8589 33.7638C26.2616 38.7853 18.1943 39.9927 9.85354 35.7732C2.65793 32.1341 -1.02534 24.2925 0.247998 16.0542C1.44869 8.30228 7.74699 1.85157 15.4639 0.43514C21.305 -0.635712 26.7914 0.234622 31.8335 3.43865C33.9059 4.75694 33.9785 5.36276 32.4531 7.30395C32.2779 7.5258 32.0813 7.73485 31.9019 7.9567C29.9705 10.3316 27.6118 10.9232 24.8259 9.7315C19.9163 7.62819 14.6221 8.8441 11.9857 12.6795C8.88786 17.1848 9.31088 23.1577 13.007 27.0017C15.6904 29.7918 21.0315 30.7603 24.514 29.0751C26.0693 28.3242 26.5992 27.0102 26.3812 25.3847C26.1505 23.6739 24.8943 23.2985 23.4201 23.2899C23.3475 23.2899 23.2791 23.2899 23.2064 23.2899C19.4676 23.1491 18.0576 21.1141 19.4078 17.5176C19.6386 16.9032 20.7623 16.3315 21.5229 16.2633C23.5013 16.0883 25.501 16.2035 27.4922 16.2035H27.5007Z" fill="#FEECCB"/>
<path class="header__logo--color" d="M90.3169 38.1155C85.292 38.0003 80.6302 36.6649 76.4299 33.879C74.4686 32.5778 74.4174 32.0274 75.8659 30.1716C79.0877 26.0375 79.1005 26.0161 83.7964 28.3285C86.5567 29.6852 89.441 30.2398 92.4918 29.8942C93.9959 29.7236 95.3675 29.1732 95.6495 27.5222C95.9273 25.8839 94.7138 25.0519 93.3977 24.5784C91.3296 23.836 89.2017 23.2515 87.0994 22.5945C85.4714 22.0868 83.7964 21.6943 82.2368 21.033C78.6775 19.5185 76.1137 17.0526 75.8189 12.9867C75.4941 8.554 77.0409 4.88494 80.9336 2.45313C86.6379 -1.105 97.5809 -0.430919 102.871 3.7373C103.875 4.53084 104.187 5.36277 103.396 6.45922C103.272 6.62988 103.157 6.81333 103.042 6.98825C100.226 11.2887 100.286 11.1223 95.5 9.48406C93.2781 8.72465 90.7827 8.54973 88.4112 8.554C87.5438 8.554 86.1209 9.73577 85.9756 10.5592C85.8303 11.3612 86.796 12.9185 87.625 13.2384C91.0647 14.5653 94.6454 15.5167 98.1535 16.66C101.67 17.8077 104.294 19.9323 105.315 23.627C106.665 28.5162 104.366 34.0027 99.5977 36.1231C96.7434 37.3945 93.5216 37.8382 90.4665 38.653C90.4195 38.4739 90.3725 38.2947 90.3255 38.1197L90.3169 38.1155Z" fill="#FEECCB"/>
<path class="header__logo--color" d="M127 9.9832C127.034 15.0516 123.069 19.062 118.014 19.0705C112.929 19.079 108.934 15.154 108.87 10.0941C108.806 5.11957 112.882 1.01535 117.903 0.994021C122.983 0.968423 126.966 4.90199 127 9.98747V9.9832ZM122.014 14.7402C125.137 12.4534 125.419 8.71183 123.334 5.95578C120.992 2.85841 116.685 2.36778 113.737 4.85933C110.682 7.44046 110.254 11.4764 112.746 14.2751C115.228 17.0653 118.886 17.6242 121.026 15.6105C120.565 14.8468 120.146 14.0746 119.651 13.3579C119.138 12.6198 118.552 11.9287 117.997 11.2204C117.45 11.9926 116.912 12.7691 116.352 13.5328C116.023 13.985 115.664 14.4117 115.318 14.8511C114.976 14.4031 114.382 13.9765 114.339 13.4987C114.207 12.0225 114.262 10.525 114.288 9.03608C114.356 5.00865 113.528 5.12811 118.172 5.1793C121.497 5.2177 122.244 6.31842 121.779 9.5779C121.565 11.0925 121.898 12.6795 122.014 14.7444V14.7402ZM120.232 8.2852C119.189 7.68364 118.642 7.11195 118.125 7.14182C117.604 7.17168 117.117 7.79457 116.613 8.16147C117.083 8.56251 117.518 9.22379 118.027 9.28352C118.548 9.34325 119.138 8.81423 120.232 8.2852Z" fill="#FEECCB"/>
<path class="header__logo--color" d="M8.00745 53.7729V44.212C9.30214 44.212 10.5285 44.0286 11.6693 44.2632C12.7632 44.4894 14.1861 44.8861 14.686 45.6882C15.1432 46.422 14.5536 47.8043 14.4596 48.585C14.8313 49.754 15.7073 51.0595 15.3569 51.7677C14.904 52.685 13.5494 53.4273 12.4513 53.6961C11.1139 54.0204 9.63543 53.7729 8.00745 53.7729V53.7729ZM9.12268 52.7575C10.3533 52.7575 11.5241 52.9666 12.5667 52.685C13.2973 52.4887 13.8528 51.6312 14.4852 51.0723C13.84 50.539 13.2631 49.7284 12.5282 49.5407C11.4771 49.2762 10.3148 49.4724 9.12268 49.4724V52.7533V52.7575ZM9.10986 48.5594C10.4302 48.4784 11.5326 48.5893 12.5026 48.2864C13.0794 48.1072 13.8357 47.2582 13.8101 46.742C13.7844 46.2215 12.964 45.445 12.3701 45.3085C11.3275 45.0738 10.1952 45.2445 9.10986 45.2445V48.5552V48.5594Z" fill="#FEECCB"/>
<path class="header__logo--color" d="M67.2089 47.3522C67.2089 48.6705 67.1876 50.3642 67.2175 52.0579C67.2431 53.5682 66.9782 54.9804 65.4357 55.6033C63.7265 56.2901 62.0344 56.1878 60.6286 54.558C61.7823 54.7201 62.9488 55.07 64.0854 54.9932C65.6109 54.8908 66.1877 53.7986 66.0852 52.1305C65.5639 52.4419 65.1921 52.7235 64.7734 52.9027C63.1967 53.581 61.5986 53.3165 60.8551 51.8659C60.3338 50.8506 60.2697 49.2165 60.7269 48.1798C61.3764 46.7079 62.9403 46.3496 64.5854 46.8658C65.2904 47.0876 66.0467 47.1474 67.2132 47.3607L67.2089 47.3522ZM63.1625 52.6168C63.5 52.6126 63.8419 52.6083 64.1794 52.604C64.8417 51.6868 65.9356 50.825 66.0595 49.8394C66.2475 48.3547 64.9785 47.6167 63.5385 47.6508C62.1669 47.6849 61.0346 48.4742 61.3038 49.8693C61.496 50.8676 62.513 51.7038 63.1625 52.6126V52.6168Z" fill="#FEECCB"/>
<path class="header__logo--color" d="M49.7113 53.4785C50.959 50.714 52.1896 47.9408 53.4715 45.1933C53.6595 44.788 54.074 44.4894 54.3816 44.1395C54.7149 44.4467 55.1892 44.6856 55.3644 45.0653C56.6719 47.8598 57.9239 50.6798 59.1075 53.8711C55.9669 49.9801 52.9331 49.7754 49.9463 54.1313C49.8694 53.9137 49.7882 53.6961 49.7113 53.4785V53.4785ZM56.5651 50.2361C55.8259 48.5595 55.202 47.1516 54.4201 45.381C53.621 47.2326 53.0057 48.6576 52.3263 50.2361H56.5651Z" fill="#FEECCB"/>
<path class="header__logo--color" d="M43.5924 47.5228C43.6779 46.3367 43.7633 45.1592 43.8531 43.9817C44.0496 43.9902 44.2419 44.003 44.4385 44.0116V53.6279C44.2761 53.79 44.1094 53.9521 43.9471 54.1143C43.7377 53.7601 43.5241 53.406 43.2805 52.9965C41.3021 54.1569 39.7852 54.1271 38.5333 52.7704C37.4309 51.5715 37.3283 49.3743 38.3111 48.039C39.4349 46.5116 40.9774 46.358 43.5967 47.5185L43.5924 47.5228ZM43.7377 50.3001C43.5625 48.8795 42.9088 47.7574 41.2893 47.6678C39.6485 47.5782 38.764 48.6021 38.7127 50.1423C38.6657 51.6526 39.4434 52.796 41.0628 52.8685C42.6823 52.9453 43.4343 51.8616 43.7377 50.2959V50.3001Z" fill="#FEECCB"/>
<path class="header__logo--color" d="M75.353 50.6628H69.9606C70.8964 53.2653 71.6997 53.4957 74.7933 52.2627C74.4643 53.6322 73.4131 54.1953 71.7296 53.9052C69.8239 53.5767 68.6488 51.9384 68.8326 49.865C69.0035 47.9451 70.5417 46.5373 72.3577 46.6396C74.2036 46.742 75.2291 47.9835 75.353 50.6671V50.6628ZM74.1481 49.7455C74.2763 49.528 74.4045 49.3061 74.5326 49.0885C73.755 48.5723 72.9559 47.6252 72.1996 47.6593C71.3536 47.6934 70.546 48.6192 69.7256 49.1525C69.8367 49.3488 69.9478 49.5493 70.0632 49.7455H74.1481Z" fill="#FEECCB"/>
<path class="header__logo--color" d="M77.4425 46.9767C79.2756 47.6678 82.0274 45.1635 83.0999 48.4102C83.6682 50.1295 83.4588 51.9726 83.164 53.726C82.8563 53.726 82.5487 53.7175 82.241 53.7132C82.241 52.5059 82.2282 51.3028 82.241 50.0954C82.2581 48.7259 81.8436 47.6209 80.2626 47.6721C78.7714 47.719 78.2287 48.7429 78.2501 50.138C78.2672 51.3326 78.2501 52.5229 78.2501 53.7175C77.9766 53.7218 77.7032 53.726 77.4297 53.7303V46.9767H77.4425Z" fill="#FEECCB"/>
<path class="header__logo--color" d="M28.0988 53.3293C27.1588 53.4658 26.4623 53.7005 25.7957 53.6365C24.6677 53.5255 23.4712 53.4061 22.4756 52.924C22.0954 52.7405 21.8518 51.1833 22.1509 50.906C22.9029 50.2191 23.9669 49.8138 24.9668 49.4768C25.5308 49.2848 26.2145 49.4427 26.8511 49.4427C26.6916 48.487 25.3456 47.8726 22.8132 47.5996C22.7961 47.3948 22.7833 47.19 22.7662 46.9852C24.0182 46.9554 25.4112 46.5842 26.4751 47.0151C27.2442 47.3265 27.8296 48.6576 28.0347 49.6304C28.2997 50.8975 28.0988 52.2627 28.0988 53.3293V53.3293ZM27.0434 50.3684C25.4795 50.4452 23.8216 49.5109 23.0824 51.5033C22.9799 51.7763 23.9413 52.8088 24.4967 52.8856C26.0051 53.0946 27.1203 52.5016 27.0477 50.3684H27.0434Z" fill="#FEECCB"/>
<path class="header__logo--color" d="M95.688 52.1049C96.564 50.1594 97.3544 48.4188 98.1407 46.6781C98.4013 46.8018 98.6662 46.9255 98.9269 47.0493C97.8202 49.6645 96.8075 52.3225 95.5684 54.8695C94.9274 56.192 94.0301 56.2219 92.2269 55.2534C92.8038 55.1511 93.1584 55.0956 93.5131 55.0273C94.8462 54.7671 95.3291 54.1357 94.6625 52.7875C93.7395 50.9103 92.9234 48.9819 92.2739 46.9469C94.4745 47.9409 94.1412 50.6586 95.688 52.1092V52.1049Z" fill="#FEECCB"/>
<path class="header__logo--color" d="M91.1203 48.3035C89.2274 47.6508 87.2618 46.8188 86.2235 49.1525C85.8902 49.9034 86.0697 51.1876 86.5226 51.9171C87.7105 53.8455 89.4325 52.7192 91.0733 52.3949C90.364 53.6876 89.2658 54.1015 87.8899 53.9095C86.2107 53.6706 85.1937 52.6211 84.8732 51.0297C84.5314 49.3274 85.1894 47.9153 86.7362 47.1004C88.3557 46.2429 89.8555 46.5373 91.1203 48.3035Z" fill="#FEECCB"/>
<path class="header__logo--color" d="M30.1498 53.6705V47.2454C30.983 47.1046 31.7009 47.0748 32.3589 46.8615C34.3714 46.2087 35.9695 47.1942 36.0806 49.3018C36.1575 50.7566 36.0934 52.22 36.0934 53.6791C35.7986 53.6961 35.508 53.7089 35.2132 53.726C35.1747 52.5869 35.2987 51.4136 35.0466 50.3257C34.8329 49.4085 34.3843 48.231 33.6664 47.8129C32.4529 47.1046 31.1454 48.2224 31.0257 49.9076C30.936 51.1662 31.0086 52.4376 31.0086 53.7047C30.7224 53.6919 30.4318 53.6833 30.1455 53.6705H30.1498Z" fill="#FEECCB"/>
<path class="header__logo--color" d="M19.2539 47.382C19.5743 47.254 20.3349 46.9468 21.0955 46.6354C21.3177 46.8316 21.5399 47.0279 21.7621 47.2241C17.9805 48.1585 18.5317 51.226 18.2241 53.8754C17.9378 53.8327 17.6515 53.7858 17.361 53.7431V47.2412C17.8139 47.2753 18.2668 47.3052 19.2496 47.3777L19.2539 47.382Z" fill="#FEECCB"/>
</g>
<defs>
<clipPath id="clip0_1107_460">
<rect width="127" height="56" fill="white"/>
</clipPath>
</defs>
</svg>
